<?xml version="1.0"?>
<svg xmlns="http://www.w3.org/2000/svg" id="Layer_1" enable-background="new 0 0 510.992 510.992" height="512px" viewBox="0 0 510.992 510.992" width="512px" class="hovered-paths"><g><path d="m151.121 129.051c-8.837 0-16-7.163-16-16v-97.051c0-8.837 7.163-16 16-16s16 7.163 16 16v97.051c0 8.837-7.163 16-16 16z" data-original="#000000" class="hovered-path active-path" data-old_color="#000000" fill="#F00202"/><path d="m359.872 129.051c-8.837 0-16-7.163-16-16v-97.051c0-8.837 7.163-16 16-16s16 7.163 16 16v97.051c0 8.837-7.163 16-16 16z" data-original="#000000" class="hovered-path active-path" data-old_color="#000000" fill="#F00202"/><path d="m24.263 221.975v220.767c0 37.634 30.617 68.251 68.251 68.251h325.965c37.634 0 68.251-30.617 68.251-68.251v-220.767z" data-original="#000000" class="hovered-path active-path" data-old_color="#000000" fill="#F00202"/><path d="m486.729 189.975v-73.198c0-37.634-30.617-68.251-68.251-68.251h-10.606v64.525c0 26.468-21.532 48-48 48s-48-21.532-48-48v-64.526h-112.751v64.525c0 26.468-21.532 48-48 48s-48-21.532-48-48v-64.525h-10.607c-37.634 0-68.251 30.617-68.251 68.251v73.198h462.466z" data-original="#000000" class="hovered-path active-path" data-old_color="#000000" fill="#F00202"/></g> </svg>
