<svg id="SvgjsSvg1001" width="288" height="288" xmlns="http://www.w3.org/2000/svg" version="1.1" xmlns:xlink="http://www.w3.org/1999/xlink" xmlns:svgjs="http://svgjs.com/svgjs"><defs id="SvgjsDefs1002"></defs><g id="SvgjsG1008" transform="matrix(0.9167,0,0,0.9167,11.9952003177643,11.995199602794656)"><svg xmlns="http://www.w3.org/2000/svg" enable-background="new 0 0 70 70" viewBox="0 0 70 70" width="288" height="288"><path d="M35,49.5799561c8,0,14.5-6.5,14.5-14.5v-8.289917h-29v8.289917C20.5,43.0799561,27,49.5799561,35,49.5799561z" fill="#744406" class="color000 svgShape"></path><path d="M54.5 25.9199829v9.1599731c0 9.5800171-6.960022 17.5600586-16.0800171 19.1800537v7.9299927h2.4100342c2.6499634 0 4.8099976 2.1599731 4.8099976 4.8099976 0 .5499878-.4500122 1-1 1H25.3599854c-.5499878 0-1-.4500122-1-1 0-2.6500244 2.1600342-4.8099976 4.8099976-4.8099976h2.4100342v-7.9299927C22.460022 52.6400146 15.5 44.6599731 15.5 35.0799561v-9.1599731c0-.5499878.4500122-1 1-1h2v10.1599731c0 9.1000366 7.4000244 16.5 16.5 16.5s16.5-7.3999634 16.5-16.5V24.9199829h2C54.0499878 24.9199829 54.5 25.3699951 54.5 25.9199829zM49.5 16.5c0-3.8800049-1.5100098-7.5200195-4.2399902-10.2600098C42.5200195 3.5100098 38.8800049 2 35 2c-8 0-14.5 6.5-14.5 14.5v8.2900391h29V16.5zM27.2519531 19.5537109l-.7363281.4599609c-.1645508.1030273-.3476563.1518555-.5288086.1518555-.3334961 0-.6591797-.1665039-.8491211-.4702148-.2924805-.4682617-.1499023-1.0854492.3183594-1.3779297l.7363281-.4599609c.4682617-.2924805 1.0854492-.1499023 1.3779297.3183594S27.7202148 19.2612305 27.2519531 19.5537109zM28.7241211 13.6665039l-.7358398.4599609c-.1650391.1030273-.3481445.1518555-.5292969.1518555-.3334961 0-.6591797-.1665039-.8491211-.4697266-.2924805-.46875-.1503906-1.0854492.3178711-1.378418l.7358398-.4599609c.4692383-.2924805 1.0854492-.1499023 1.378418.3178711C29.3344727 12.7568359 29.1923828 13.3735352 28.7241211 13.6665039zM29.5532227 8.65625c-.2924805-.4682617-.1499023-1.0854492.3183594-1.3779297l.7363281-.4599609c.4682617-.2924805 1.0859375-.1503906 1.3779297.3183594.2924805.4682617.1499023 1.0854492-.3183594 1.3779297l-.7363281.4599609c-.1645508.1030273-.3476563.1518555-.5288086.1518555C30.0688477 9.1264648 29.7431641 8.9599609 29.5532227 8.65625zM33.0473633 22.2216797l-.7363281.4599609c-.1645508.1030273-.3476563.1518555-.5288086.1518555-.3334961 0-.6591797-.1665039-.8491211-.4702148-.2924805-.4682617-.1499023-1.0854492.3183594-1.3779297l.7363281-.4599609c.46875-.2924805 1.0849609-.1494141 1.3779297.3183594C33.6582031 21.3120117 33.515625 21.9291992 33.0473633 22.2216797zM33.4155273 16.1499023l-.7358398.4599609c-.1650391.1030273-.3481445.1518555-.5292969.1518555-.3334961 0-.6591797-.1665039-.8491211-.4697266-.2924805-.46875-.1503906-1.0854492.3178711-1.378418l.7358398-.4599609c.4692383-.2924805 1.0854492-.1494141 1.378418.3178711C34.0258789 15.2402344 33.8837891 15.8569336 33.4155273 16.1499023zM35.8979492 11.4433594l-.7363281.4599609c-.1645508.1030273-.3476563.1518555-.5288086.1518555-.3334961 0-.6591797-.1665039-.8491211-.4702148-.2924805-.4682617-.1499023-1.0854492.3183594-1.3779297l.7363281-.4599609c.46875-.2915039 1.0854492-.1494141 1.3779297.3183594C36.5087891 10.5336914 36.3662109 11.1508789 35.8979492 11.4433594zM36.8183594 14.7714844c.2929688-.4672852.9101563-.6113281 1.378418-.3178711l.7358398.4599609c.4682617.2929688.6103516.909668.3178711 1.378418-.1899414.3032227-.515625.4697266-.8491211.4697266-.1811523 0-.3642578-.0488281-.5292969-.1518555l-.7358398-.4599609C36.6679688 15.8569336 36.5258789 15.2402344 36.8183594 14.7714844zM39.6186523 22.3637695c-.1899414.3032227-.515625.4697266-.8491211.4697266-.1811523 0-.3642578-.0488281-.5292969-.1518555l-.7358398-.4599609c-.4682617-.2929688-.6103516-.909668-.3178711-1.378418.2924805-.4672852.909668-.6113281 1.378418-.3178711l.7358398.4599609C39.769043 21.2783203 39.9111328 21.8950195 39.6186523 22.3637695zM40.4467773 8.65625c-.1894531.3037109-.515625.4702148-.8491211.4702148-.1811523 0-.3642578-.0488281-.5288086-.1518555l-.7363281-.4599609c-.4682617-.2924805-.6108398-.909668-.3183594-1.3779297.2924805-.46875.9101563-.6113281 1.3779297-.3183594l.7363281.4599609C40.5966797 7.5708008 40.7392578 8.1879883 40.4467773 8.65625zM41.2758789 13.6665039c-.4682617-.2929688-.6103516-.909668-.3178711-1.378418.2929688-.4677734.9101563-.6108398 1.378418-.3178711l.7358398.4599609c.4682617.2929688.6103516.909668.3178711 1.378418-.1899414.3032227-.515625.4697266-.8491211.4697266-.1811523 0-.3642578-.0488281-.5292969-.1518555L41.2758789 13.6665039zM44.8623047 19.6953125c-.1894531.3037109-.515625.4702148-.8491211.4702148-.1811523 0-.3642578-.0488281-.5288086-.1518555l-.7363281-.4599609c-.4682617-.2924805-.6108398-.909668-.3183594-1.3779297.2924805-.46875.9101563-.6113281 1.3779297-.3183594l.7363281.4599609C45.012207 18.6098633 45.1547852 19.2270508 44.8623047 19.6953125z" fill="#744406" class="color000 svgShape"></path></svg></g></svg>